ISO-10303-21;
HEADER;
FILE_DESCRIPTION(('FreeCAD Model'),'2;1');
FILE_NAME('Open CASCADE Shape Model','2025-03-19T21:41:51',(''),(''),
  'Open CASCADE STEP processor 7.8','FreeCAD','Unknown');
FILE_SCHEMA(('AUTOMOTIVE_DESIGN { 1 0 10303 214 1 1 1 1 }'));
ENDSEC;
DATA;
#1 = APPLICATION_PROTOCOL_DEFINITION('international standard',
  'automotive_design',2000,#2);
#2 = APPLICATION_CONTEXT(
  'core data for automotive mechanical design processes');
#3 = SHAPE_DEFINITION_REPRESENTATION(#4,#10);
#4 = PRODUCT_DEFINITION_SHAPE('','',#5);
#5 = PRODUCT_DEFINITION('design','',#6,#9);
#6 = PRODUCT_DEFINITION_FORMATION('','',#7);
#7 = PRODUCT('custom cage plate','custom cage plate','',(#8));
#8 = PRODUCT_CONTEXT('',#2,'mechanical');
#9 = PRODUCT_DEFINITION_CONTEXT('part definition',#2,'design');
#10 = ADVANCED_BREP_SHAPE_REPRESENTATION('',(#11,#15),#1090);
#11 = AXIS2_PLACEMENT_3D('',#12,#13,#14);
#12 = CARTESIAN_POINT('',(0.,0.,0.));
#13 = DIRECTION('',(0.,0.,1.));
#14 = DIRECTION('',(1.,0.,-0.));
#15 = MANIFOLD_SOLID_BREP('',#16);
#16 = CLOSED_SHELL('',(#17,#137,#213,#417,#501,#663,#670,#697,#724,#751,
    #810,#837,#1030,#1083));
#17 = ADVANCED_FACE('',(#18),#32,.F.);
#18 = FACE_BOUND('',#19,.F.);
#19 = EDGE_LOOP('',(#20,#55,#83,#111));
#20 = ORIENTED_EDGE('',*,*,#21,.F.);
#21 = EDGE_CURVE('',#22,#24,#26,.T.);
#22 = VERTEX_POINT('',#23);
#23 = CARTESIAN_POINT('',(6.761258219967E-15,-20.3,-20.3));
#24 = VERTEX_POINT('',#25);
#25 = CARTESIAN_POINT('',(10.,-20.3,-20.3));
#26 = SURFACE_CURVE('',#27,(#31,#43),.PCURVE_S1.);
#27 = LINE('',#28,#29);
#28 = CARTESIAN_POINT('',(7.105427357601E-15,-20.3,-20.3));
#29 = VECTOR('',#30,1.);
#30 = DIRECTION('',(1.,-3.697785493223E-32,3.330669073875E-16));
#31 = PCURVE('',#32,#37);
#32 = PLANE('',#33);
#33 = AXIS2_PLACEMENT_3D('',#34,#35,#36);
#34 = CARTESIAN_POINT('',(7.105427357601E-15,-20.3,-20.3));
#35 = DIRECTION('',(0.,1.,1.110223024625E-16));
#36 = DIRECTION('',(1.,-3.697785493223E-32,3.330669073875E-16));
#37 = DEFINITIONAL_REPRESENTATION('',(#38),#42);
#38 = LINE('',#39,#40);
#39 = CARTESIAN_POINT('',(0.,0.));
#40 = VECTOR('',#41,1.);
#41 = DIRECTION('',(1.,0.));
#42 = ( GEOMETRIC_REPRESENTATION_CONTEXT(2) 
PARAMETRIC_REPRESENTATION_CONTEXT() REPRESENTATION_CONTEXT('2D SPACE',''
  ) );
#43 = PCURVE('',#44,#49);
#44 = PLANE('',#45);
#45 = AXIS2_PLACEMENT_3D('',#46,#47,#48);
#46 = CARTESIAN_POINT('',(7.105427357601E-15,-20.3,-20.3));
#47 = DIRECTION('',(-3.330669073875E-16,-1.110223024625E-16,1.));
#48 = DIRECTION('',(1.,-3.697785493223E-32,3.330669073875E-16));
#49 = DEFINITIONAL_REPRESENTATION('',(#50),#54);
#50 = LINE('',#51,#52);
#51 = CARTESIAN_POINT('',(0.,0.));
#52 = VECTOR('',#53,1.);
#53 = DIRECTION('',(1.,0.));
#54 = ( GEOMETRIC_REPRESENTATION_CONTEXT(2) 
PARAMETRIC_REPRESENTATION_CONTEXT() REPRESENTATION_CONTEXT('2D SPACE',''
  ) );
#55 = ORIENTED_EDGE('',*,*,#56,.T.);
#56 = EDGE_CURVE('',#22,#57,#59,.T.);
#57 = VERTEX_POINT('',#58);
#58 = CARTESIAN_POINT('',(-6.761258219967E-15,-20.3,20.3));
#59 = SURFACE_CURVE('',#60,(#64,#71),.PCURVE_S1.);
#60 = LINE('',#61,#62);
#61 = CARTESIAN_POINT('',(7.105427357601E-15,-20.3,-20.3));
#62 = VECTOR('',#63,1.);
#63 = DIRECTION('',(-3.330669073875E-16,-1.110223024625E-16,1.));
#64 = PCURVE('',#32,#65);
#65 = DEFINITIONAL_REPRESENTATION('',(#66),#70);
#66 = LINE('',#67,#68);
#67 = CARTESIAN_POINT('',(0.,0.));
#68 = VECTOR('',#69,1.);
#69 = DIRECTION('',(0.,-1.));
#70 = ( GEOMETRIC_REPRESENTATION_CONTEXT(2) 
PARAMETRIC_REPRESENTATION_CONTEXT() REPRESENTATION_CONTEXT('2D SPACE',''
  ) );
#71 = PCURVE('',#72,#77);
#72 = PLANE('',#73);
#73 = AXIS2_PLACEMENT_3D('',#74,#75,#76);
#74 = CARTESIAN_POINT('',(7.105427357601E-15,-20.3,-20.3));
#75 = DIRECTION('',(1.,-3.697785493223E-32,3.330669073875E-16));
#76 = DIRECTION('',(0.,1.,1.110223024625E-16));
#77 = DEFINITIONAL_REPRESENTATION('',(#78),#82);
#78 = LINE('',#79,#80);
#79 = CARTESIAN_POINT('',(0.,0.));
#80 = VECTOR('',#81,1.);
#81 = DIRECTION('',(0.,1.));
#82 = ( GEOMETRIC_REPRESENTATION_CONTEXT(2) 
PARAMETRIC_REPRESENTATION_CONTEXT() REPRESENTATION_CONTEXT('2D SPACE',''
  ) );
#83 = ORIENTED_EDGE('',*,*,#84,.T.);
#84 = EDGE_CURVE('',#57,#85,#87,.T.);
#85 = VERTEX_POINT('',#86);
#86 = CARTESIAN_POINT('',(10.,-20.3,20.3));
#87 = SURFACE_CURVE('',#88,(#92,#99),.PCURVE_S1.);
#88 = LINE('',#89,#90);
#89 = CARTESIAN_POINT('',(-7.105427357601E-15,-20.3,20.3));
#90 = VECTOR('',#91,1.);
#91 = DIRECTION('',(1.,-3.697785493223E-32,3.330669073875E-16));
#92 = PCURVE('',#32,#93);
#93 = DEFINITIONAL_REPRESENTATION('',(#94),#98);
#94 = LINE('',#95,#96);
#95 = CARTESIAN_POINT('',(-6.883382752676E-16,-40.6));
#96 = VECTOR('',#97,1.);
#97 = DIRECTION('',(1.,0.));
#98 = ( GEOMETRIC_REPRESENTATION_CONTEXT(2) 
PARAMETRIC_REPRESENTATION_CONTEXT() REPRESENTATION_CONTEXT('2D SPACE',''
  ) );
#99 = PCURVE('',#100,#105);
#100 = PLANE('',#101);
#101 = AXIS2_PLACEMENT_3D('',#102,#103,#104);
#102 = CARTESIAN_POINT('',(-7.105427357601E-15,-20.3,20.3));
#103 = DIRECTION('',(-3.330669073875E-16,-1.110223024625E-16,1.));
#104 = DIRECTION('',(1.,-3.697785493223E-32,3.330669073875E-16));
#105 = DEFINITIONAL_REPRESENTATION('',(#106),#110);
#106 = LINE('',#107,#108);
#107 = CARTESIAN_POINT('',(0.,0.));
#108 = VECTOR('',#109,1.);
#109 = DIRECTION('',(1.,0.));
#110 = ( GEOMETRIC_REPRESENTATION_CONTEXT(2) 
PARAMETRIC_REPRESENTATION_CONTEXT() REPRESENTATION_CONTEXT('2D SPACE',''
  ) );
#111 = ORIENTED_EDGE('',*,*,#112,.F.);
#112 = EDGE_CURVE('',#24,#85,#113,.T.);
#113 = SURFACE_CURVE('',#114,(#118,#125),.PCURVE_S1.);
#114 = LINE('',#115,#116);
#115 = CARTESIAN_POINT('',(10.,-20.3,-20.3));
#116 = VECTOR('',#117,1.);
#117 = DIRECTION('',(-3.330669073875E-16,-1.110223024625E-16,1.));
#118 = PCURVE('',#32,#119);
#119 = DEFINITIONAL_REPRESENTATION('',(#120),#124);
#120 = LINE('',#121,#122);
#121 = CARTESIAN_POINT('',(10.,-2.22044604925E-16));
#122 = VECTOR('',#123,1.);
#123 = DIRECTION('',(0.,-1.));
#124 = ( GEOMETRIC_REPRESENTATION_CONTEXT(2) 
PARAMETRIC_REPRESENTATION_CONTEXT() REPRESENTATION_CONTEXT('2D SPACE',''
  ) );
#125 = PCURVE('',#126,#131);
#126 = PLANE('',#127);
#127 = AXIS2_PLACEMENT_3D('',#128,#129,#130);
#128 = CARTESIAN_POINT('',(10.,-20.3,-20.3));
#129 = DIRECTION('',(1.,-3.697785493223E-32,3.330669073875E-16));
#130 = DIRECTION('',(0.,1.,1.110223024625E-16));
#131 = DEFINITIONAL_REPRESENTATION('',(#132),#136);
#132 = LINE('',#133,#134);
#133 = CARTESIAN_POINT('',(0.,0.));
#134 = VECTOR('',#135,1.);
#135 = DIRECTION('',(0.,1.));
#136 = ( GEOMETRIC_REPRESENTATION_CONTEXT(2) 
PARAMETRIC_REPRESENTATION_CONTEXT() REPRESENTATION_CONTEXT('2D SPACE',''
  ) );
#137 = ADVANCED_FACE('',(#138),#44,.F.);
#138 = FACE_BOUND('',#139,.F.);
#139 = EDGE_LOOP('',(#140,#163,#164,#187));
#140 = ORIENTED_EDGE('',*,*,#141,.F.);
#141 = EDGE_CURVE('',#22,#142,#144,.T.);
#142 = VERTEX_POINT('',#143);
#143 = CARTESIAN_POINT('',(6.761258219967E-15,20.3,-20.3));
#144 = SURFACE_CURVE('',#145,(#149,#156),.PCURVE_S1.);
#145 = LINE('',#146,#147);
#146 = CARTESIAN_POINT('',(7.105427357601E-15,-20.3,-20.3));
#147 = VECTOR('',#148,1.);
#148 = DIRECTION('',(0.,1.,1.110223024625E-16));
#149 = PCURVE('',#44,#150);
#150 = DEFINITIONAL_REPRESENTATION('',(#151),#155);
#151 = LINE('',#152,#153);
#152 = CARTESIAN_POINT('',(0.,0.));
#153 = VECTOR('',#154,1.);
#154 = DIRECTION('',(0.,1.));
#155 = ( GEOMETRIC_REPRESENTATION_CONTEXT(2) 
PARAMETRIC_REPRESENTATION_CONTEXT() REPRESENTATION_CONTEXT('2D SPACE',''
  ) );
#156 = PCURVE('',#72,#157);
#157 = DEFINITIONAL_REPRESENTATION('',(#158),#162);
#158 = LINE('',#159,#160);
#159 = CARTESIAN_POINT('',(0.,0.));
#160 = VECTOR('',#161,1.);
#161 = DIRECTION('',(1.,0.));
#162 = ( GEOMETRIC_REPRESENTATION_CONTEXT(2) 
PARAMETRIC_REPRESENTATION_CONTEXT() REPRESENTATION_CONTEXT('2D SPACE',''
  ) );
#163 = ORIENTED_EDGE('',*,*,#21,.T.);
#164 = ORIENTED_EDGE('',*,*,#165,.T.);
#165 = EDGE_CURVE('',#24,#166,#168,.T.);
#166 = VERTEX_POINT('',#167);
#167 = CARTESIAN_POINT('',(10.,20.3,-20.3));
#168 = SURFACE_CURVE('',#169,(#173,#180),.PCURVE_S1.);
#169 = LINE('',#170,#171);
#170 = CARTESIAN_POINT('',(10.,-20.3,-20.3));
#171 = VECTOR('',#172,1.);
#172 = DIRECTION('',(0.,1.,1.110223024625E-16));
#173 = PCURVE('',#44,#174);
#174 = DEFINITIONAL_REPRESENTATION('',(#175),#179);
#175 = LINE('',#176,#177);
#176 = CARTESIAN_POINT('',(10.,-1.751623080406E-46));
#177 = VECTOR('',#178,1.);
#178 = DIRECTION('',(0.,1.));
#179 = ( GEOMETRIC_REPRESENTATION_CONTEXT(2) 
PARAMETRIC_REPRESENTATION_CONTEXT() REPRESENTATION_CONTEXT('2D SPACE',''
  ) );
#180 = PCURVE('',#126,#181);
#181 = DEFINITIONAL_REPRESENTATION('',(#182),#186);
#182 = LINE('',#183,#184);
#183 = CARTESIAN_POINT('',(0.,0.));
#184 = VECTOR('',#185,1.);
#185 = DIRECTION('',(1.,0.));
#186 = ( GEOMETRIC_REPRESENTATION_CONTEXT(2) 
PARAMETRIC_REPRESENTATION_CONTEXT() REPRESENTATION_CONTEXT('2D SPACE',''
  ) );
#187 = ORIENTED_EDGE('',*,*,#188,.F.);
#188 = EDGE_CURVE('',#142,#166,#189,.T.);
#189 = SURFACE_CURVE('',#190,(#194,#201),.PCURVE_S1.);
#190 = LINE('',#191,#192);
#191 = CARTESIAN_POINT('',(7.105427357601E-15,20.3,-20.3));
#192 = VECTOR('',#193,1.);
#193 = DIRECTION('',(1.,-3.697785493223E-32,3.330669073875E-16));
#194 = PCURVE('',#44,#195);
#195 = DEFINITIONAL_REPRESENTATION('',(#196),#200);
#196 = LINE('',#197,#198);
#197 = CARTESIAN_POINT('',(-3.180095524172E-31,40.6));
#198 = VECTOR('',#199,1.);
#199 = DIRECTION('',(1.,0.));
#200 = ( GEOMETRIC_REPRESENTATION_CONTEXT(2) 
PARAMETRIC_REPRESENTATION_CONTEXT() REPRESENTATION_CONTEXT('2D SPACE',''
  ) );
#201 = PCURVE('',#202,#207);
#202 = PLANE('',#203);
#203 = AXIS2_PLACEMENT_3D('',#204,#205,#206);
#204 = CARTESIAN_POINT('',(7.105427357601E-15,20.3,-20.3));
#205 = DIRECTION('',(0.,1.,1.110223024625E-16));
#206 = DIRECTION('',(1.,-3.697785493223E-32,3.330669073875E-16));
#207 = DEFINITIONAL_REPRESENTATION('',(#208),#212);
#208 = LINE('',#209,#210);
#209 = CARTESIAN_POINT('',(0.,0.));
#210 = VECTOR('',#211,1.);
#211 = DIRECTION('',(1.,0.));
#212 = ( GEOMETRIC_REPRESENTATION_CONTEXT(2) 
PARAMETRIC_REPRESENTATION_CONTEXT() REPRESENTATION_CONTEXT('2D SPACE',''
  ) );
#213 = ADVANCED_FACE('',(#214,#262,#293,#324,#355,#386),#126,.T.);
#214 = FACE_BOUND('',#215,.T.);
#215 = EDGE_LOOP('',(#216,#217,#218,#241));
#216 = ORIENTED_EDGE('',*,*,#112,.F.);
#217 = ORIENTED_EDGE('',*,*,#165,.T.);
#218 = ORIENTED_EDGE('',*,*,#219,.T.);
#219 = EDGE_CURVE('',#166,#220,#222,.T.);
#220 = VERTEX_POINT('',#221);
#221 = CARTESIAN_POINT('',(10.,20.3,20.3));
#222 = SURFACE_CURVE('',#223,(#227,#234),.PCURVE_S1.);
#223 = LINE('',#224,#225);
#224 = CARTESIAN_POINT('',(10.,20.3,-20.3));
#225 = VECTOR('',#226,1.);
#226 = DIRECTION('',(-3.330669073875E-16,-1.110223024625E-16,1.));
#227 = PCURVE('',#126,#228);
#228 = DEFINITIONAL_REPRESENTATION('',(#229),#233);
#229 = LINE('',#230,#231);
#230 = CARTESIAN_POINT('',(40.6,-9.547918011776E-16));
#231 = VECTOR('',#232,1.);
#232 = DIRECTION('',(0.,1.));
#233 = ( GEOMETRIC_REPRESENTATION_CONTEXT(2) 
PARAMETRIC_REPRESENTATION_CONTEXT() REPRESENTATION_CONTEXT('2D SPACE',''
  ) );
#234 = PCURVE('',#202,#235);
#235 = DEFINITIONAL_REPRESENTATION('',(#236),#240);
#236 = LINE('',#237,#238);
#237 = CARTESIAN_POINT('',(10.,-2.22044604925E-16));
#238 = VECTOR('',#239,1.);
#239 = DIRECTION('',(0.,-1.));
#240 = ( GEOMETRIC_REPRESENTATION_CONTEXT(2) 
PARAMETRIC_REPRESENTATION_CONTEXT() REPRESENTATION_CONTEXT('2D SPACE',''
  ) );
#241 = ORIENTED_EDGE('',*,*,#242,.F.);
#242 = EDGE_CURVE('',#85,#220,#243,.T.);
#243 = SURFACE_CURVE('',#244,(#248,#255),.PCURVE_S1.);
#244 = LINE('',#245,#246);
#245 = CARTESIAN_POINT('',(10.,-20.3,20.3));
#246 = VECTOR('',#247,1.);
#247 = DIRECTION('',(0.,1.,1.110223024625E-16));
#248 = PCURVE('',#126,#249);
#249 = DEFINITIONAL_REPRESENTATION('',(#250),#254);
#250 = LINE('',#251,#252);
#251 = CARTESIAN_POINT('',(-7.88860905221E-31,40.6));
#252 = VECTOR('',#253,1.);
#253 = DIRECTION('',(1.,0.));
#254 = ( GEOMETRIC_REPRESENTATION_CONTEXT(2) 
PARAMETRIC_REPRESENTATION_CONTEXT() REPRESENTATION_CONTEXT('2D SPACE',''
  ) );
#255 = PCURVE('',#100,#256);
#256 = DEFINITIONAL_REPRESENTATION('',(#257),#261);
#257 = LINE('',#258,#259);
#258 = CARTESIAN_POINT('',(10.,-1.751623080406E-46));
#259 = VECTOR('',#260,1.);
#260 = DIRECTION('',(0.,1.));
#261 = ( GEOMETRIC_REPRESENTATION_CONTEXT(2) 
PARAMETRIC_REPRESENTATION_CONTEXT() REPRESENTATION_CONTEXT('2D SPACE',''
  ) );
#262 = FACE_BOUND('',#263,.T.);
#263 = EDGE_LOOP('',(#264));
#264 = ORIENTED_EDGE('',*,*,#265,.F.);
#265 = EDGE_CURVE('',#266,#266,#268,.T.);
#266 = VERTEX_POINT('',#267);
#267 = CARTESIAN_POINT('',(10.,-11.95,-15.));
#268 = SURFACE_CURVE('',#269,(#274,#281),.PCURVE_S1.);
#269 = CIRCLE('',#270,3.05);
#270 = AXIS2_PLACEMENT_3D('',#271,#272,#273);
#271 = CARTESIAN_POINT('',(10.,-15.,-15.));
#272 = DIRECTION('',(1.,-3.697785493223E-32,3.330669073875E-16));
#273 = DIRECTION('',(0.,1.,1.110223024625E-16));
#274 = PCURVE('',#126,#275);
#275 = DEFINITIONAL_REPRESENTATION('',(#276),#280);
#276 = CIRCLE('',#277,3.05);
#277 = AXIS2_PLACEMENT_2D('',#278,#279);
#278 = CARTESIAN_POINT('',(5.3,5.3));
#279 = DIRECTION('',(1.,0.));
#280 = ( GEOMETRIC_REPRESENTATION_CONTEXT(2) 
PARAMETRIC_REPRESENTATION_CONTEXT() REPRESENTATION_CONTEXT('2D SPACE',''
  ) );
#281 = PCURVE('',#282,#287);
#282 = CYLINDRICAL_SURFACE('',#283,3.05);
#283 = AXIS2_PLACEMENT_3D('',#284,#285,#286);
#284 = CARTESIAN_POINT('',(5.329070518201E-15,-15.,-15.));
#285 = DIRECTION('',(-1.,3.697785493223E-32,-3.330669073875E-16));
#286 = DIRECTION('',(0.,1.,1.110223024625E-16));
#287 = DEFINITIONAL_REPRESENTATION('',(#288),#292);
#288 = LINE('',#289,#290);
#289 = CARTESIAN_POINT('',(-0.,-10.));
#290 = VECTOR('',#291,1.);
#291 = DIRECTION('',(-1.,0.));
#292 = ( GEOMETRIC_REPRESENTATION_CONTEXT(2) 
PARAMETRIC_REPRESENTATION_CONTEXT() REPRESENTATION_CONTEXT('2D SPACE',''
  ) );
#293 = FACE_BOUND('',#294,.T.);
#294 = EDGE_LOOP('',(#295));
#295 = ORIENTED_EDGE('',*,*,#296,.F.);
#296 = EDGE_CURVE('',#297,#297,#299,.T.);
#297 = VERTEX_POINT('',#298);
#298 = CARTESIAN_POINT('',(10.,18.05,-15.));
#299 = SURFACE_CURVE('',#300,(#305,#312),.PCURVE_S1.);
#300 = CIRCLE('',#301,3.05);
#301 = AXIS2_PLACEMENT_3D('',#302,#303,#304);
#302 = CARTESIAN_POINT('',(10.,15.,-15.));
#303 = DIRECTION('',(1.,-3.697785493223E-32,3.330669073875E-16));
#304 = DIRECTION('',(0.,1.,1.110223024625E-16));
#305 = PCURVE('',#126,#306);
#306 = DEFINITIONAL_REPRESENTATION('',(#307),#311);
#307 = CIRCLE('',#308,3.05);
#308 = AXIS2_PLACEMENT_2D('',#309,#310);
#309 = CARTESIAN_POINT('',(35.3,5.3));
#310 = DIRECTION('',(1.,0.));
#311 = ( GEOMETRIC_REPRESENTATION_CONTEXT(2) 
PARAMETRIC_REPRESENTATION_CONTEXT() REPRESENTATION_CONTEXT('2D SPACE',''
  ) );
#312 = PCURVE('',#313,#318);
#313 = CYLINDRICAL_SURFACE('',#314,3.05);
#314 = AXIS2_PLACEMENT_3D('',#315,#316,#317);
#315 = CARTESIAN_POINT('',(5.329070518201E-15,15.,-15.));
#316 = DIRECTION('',(-1.,3.697785493223E-32,-3.330669073875E-16));
#317 = DIRECTION('',(0.,1.,1.110223024625E-16));
#318 = DEFINITIONAL_REPRESENTATION('',(#319),#323);
#319 = LINE('',#320,#321);
#320 = CARTESIAN_POINT('',(-0.,-10.));
#321 = VECTOR('',#322,1.);
#322 = DIRECTION('',(-1.,0.));
#323 = ( GEOMETRIC_REPRESENTATION_CONTEXT(2) 
PARAMETRIC_REPRESENTATION_CONTEXT() REPRESENTATION_CONTEXT('2D SPACE',''
  ) );
#324 = FACE_BOUND('',#325,.T.);
#325 = EDGE_LOOP('',(#326));
#326 = ORIENTED_EDGE('',*,*,#327,.F.);
#327 = EDGE_CURVE('',#328,#328,#330,.T.);
#328 = VERTEX_POINT('',#329);
#329 = CARTESIAN_POINT('',(10.,-11.95,15.));
#330 = SURFACE_CURVE('',#331,(#336,#343),.PCURVE_S1.);
#331 = CIRCLE('',#332,3.05);
#332 = AXIS2_PLACEMENT_3D('',#333,#334,#335);
#333 = CARTESIAN_POINT('',(10.,-15.,15.));
#334 = DIRECTION('',(1.,-3.697785493223E-32,3.330669073875E-16));
#335 = DIRECTION('',(0.,1.,1.110223024625E-16));
#336 = PCURVE('',#126,#337);
#337 = DEFINITIONAL_REPRESENTATION('',(#338),#342);
#338 = CIRCLE('',#339,3.05);
#339 = AXIS2_PLACEMENT_2D('',#340,#341);
#340 = CARTESIAN_POINT('',(5.3,35.3));
#341 = DIRECTION('',(1.,0.));
#342 = ( GEOMETRIC_REPRESENTATION_CONTEXT(2) 
PARAMETRIC_REPRESENTATION_CONTEXT() REPRESENTATION_CONTEXT('2D SPACE',''
  ) );
#343 = PCURVE('',#344,#349);
#344 = CYLINDRICAL_SURFACE('',#345,3.05);
#345 = AXIS2_PLACEMENT_3D('',#346,#347,#348);
#346 = CARTESIAN_POINT('',(-5.329070518201E-15,-15.,15.));
#347 = DIRECTION('',(-1.,3.697785493223E-32,-3.330669073875E-16));
#348 = DIRECTION('',(0.,1.,1.110223024625E-16));
#349 = DEFINITIONAL_REPRESENTATION('',(#350),#354);
#350 = LINE('',#351,#352);
#351 = CARTESIAN_POINT('',(-0.,-10.));
#352 = VECTOR('',#353,1.);
#353 = DIRECTION('',(-1.,0.));
#354 = ( GEOMETRIC_REPRESENTATION_CONTEXT(2) 
PARAMETRIC_REPRESENTATION_CONTEXT() REPRESENTATION_CONTEXT('2D SPACE',''
  ) );
#355 = FACE_BOUND('',#356,.T.);
#356 = EDGE_LOOP('',(#357));
#357 = ORIENTED_EDGE('',*,*,#358,.F.);
#358 = EDGE_CURVE('',#359,#359,#361,.T.);
#359 = VERTEX_POINT('',#360);
#360 = CARTESIAN_POINT('',(10.,9.1,2.340972026284E-15));
#361 = SURFACE_CURVE('',#362,(#367,#374),.PCURVE_S1.);
#362 = CIRCLE('',#363,9.1);
#363 = AXIS2_PLACEMENT_3D('',#364,#365,#366);
#364 = CARTESIAN_POINT('',(10.,-3.697785493223E-31,3.552713678801E-15));
#365 = DIRECTION('',(1.,-3.697785493223E-32,3.330669073875E-16));
#366 = DIRECTION('',(0.,1.,1.110223024625E-16));
#367 = PCURVE('',#126,#368);
#368 = DEFINITIONAL_REPRESENTATION('',(#369),#373);
#369 = CIRCLE('',#370,9.1);
#370 = AXIS2_PLACEMENT_2D('',#371,#372);
#371 = CARTESIAN_POINT('',(20.3,20.3));
#372 = DIRECTION('',(1.,0.));
#373 = ( GEOMETRIC_REPRESENTATION_CONTEXT(2) 
PARAMETRIC_REPRESENTATION_CONTEXT() REPRESENTATION_CONTEXT('2D SPACE',''
  ) );
#374 = PCURVE('',#375,#380);
#375 = CYLINDRICAL_SURFACE('',#376,9.1);
#376 = AXIS2_PLACEMENT_3D('',#377,#378,#379);
#377 = CARTESIAN_POINT('',(0.,0.,0.));
#378 = DIRECTION('',(-1.,3.697785493223E-32,-3.330669073875E-16));
#379 = DIRECTION('',(0.,1.,1.110223024625E-16));
#380 = DEFINITIONAL_REPRESENTATION('',(#381),#385);
#381 = LINE('',#382,#383);
#382 = CARTESIAN_POINT('',(-0.,-10.));
#383 = VECTOR('',#384,1.);
#384 = DIRECTION('',(-1.,0.));
#385 = ( GEOMETRIC_REPRESENTATION_CONTEXT(2) 
PARAMETRIC_REPRESENTATION_CONTEXT() REPRESENTATION_CONTEXT('2D SPACE',''
  ) );
#386 = FACE_BOUND('',#387,.T.);
#387 = EDGE_LOOP('',(#388));
#388 = ORIENTED_EDGE('',*,*,#389,.F.);
#389 = EDGE_CURVE('',#390,#390,#392,.T.);
#390 = VERTEX_POINT('',#391);
#391 = CARTESIAN_POINT('',(10.,18.05,15.));
#392 = SURFACE_CURVE('',#393,(#398,#405),.PCURVE_S1.);
#393 = CIRCLE('',#394,3.05);
#394 = AXIS2_PLACEMENT_3D('',#395,#396,#397);
#395 = CARTESIAN_POINT('',(10.,15.,15.));
#396 = DIRECTION('',(1.,-3.697785493223E-32,3.330669073875E-16));
#397 = DIRECTION('',(0.,1.,1.110223024625E-16));
#398 = PCURVE('',#126,#399);
#399 = DEFINITIONAL_REPRESENTATION('',(#400),#404);
#400 = CIRCLE('',#401,3.05);
#401 = AXIS2_PLACEMENT_2D('',#402,#403);
#402 = CARTESIAN_POINT('',(35.3,35.3));
#403 = DIRECTION('',(1.,0.));
#404 = ( GEOMETRIC_REPRESENTATION_CONTEXT(2) 
PARAMETRIC_REPRESENTATION_CONTEXT() REPRESENTATION_CONTEXT('2D SPACE',''
  ) );
#405 = PCURVE('',#406,#411);
#406 = CYLINDRICAL_SURFACE('',#407,3.05);
#407 = AXIS2_PLACEMENT_3D('',#408,#409,#410);
#408 = CARTESIAN_POINT('',(-5.329070518201E-15,15.,15.));
#409 = DIRECTION('',(-1.,3.697785493223E-32,-3.330669073875E-16));
#410 = DIRECTION('',(0.,1.,1.110223024625E-16));
#411 = DEFINITIONAL_REPRESENTATION('',(#412),#416);
#412 = LINE('',#413,#414);
#413 = CARTESIAN_POINT('',(-0.,-10.));
#414 = VECTOR('',#415,1.);
#415 = DIRECTION('',(-1.,0.));
#416 = ( GEOMETRIC_REPRESENTATION_CONTEXT(2) 
PARAMETRIC_REPRESENTATION_CONTEXT() REPRESENTATION_CONTEXT('2D SPACE',''
  ) );
#417 = ADVANCED_FACE('',(#418,#466),#100,.T.);
#418 = FACE_BOUND('',#419,.T.);
#419 = EDGE_LOOP('',(#420,#443,#444,#445));
#420 = ORIENTED_EDGE('',*,*,#421,.F.);
#421 = EDGE_CURVE('',#57,#422,#424,.T.);
#422 = VERTEX_POINT('',#423);
#423 = CARTESIAN_POINT('',(-6.761258219967E-15,20.3,20.3));
#424 = SURFACE_CURVE('',#425,(#429,#436),.PCURVE_S1.);
#425 = LINE('',#426,#427);
#426 = CARTESIAN_POINT('',(-7.105427357601E-15,-20.3,20.3));
#427 = VECTOR('',#428,1.);
#428 = DIRECTION('',(0.,1.,1.110223024625E-16));
#429 = PCURVE('',#100,#430);
#430 = DEFINITIONAL_REPRESENTATION('',(#431),#435);
#431 = LINE('',#432,#433);
#432 = CARTESIAN_POINT('',(0.,0.));
#433 = VECTOR('',#434,1.);
#434 = DIRECTION('',(0.,1.));
#435 = ( GEOMETRIC_REPRESENTATION_CONTEXT(2) 
PARAMETRIC_REPRESENTATION_CONTEXT() REPRESENTATION_CONTEXT('2D SPACE',''
  ) );
#436 = PCURVE('',#72,#437);
#437 = DEFINITIONAL_REPRESENTATION('',(#438),#442);
#438 = LINE('',#439,#440);
#439 = CARTESIAN_POINT('',(0.,40.6));
#440 = VECTOR('',#441,1.);
#441 = DIRECTION('',(1.,0.));
#442 = ( GEOMETRIC_REPRESENTATION_CONTEXT(2) 
PARAMETRIC_REPRESENTATION_CONTEXT() REPRESENTATION_CONTEXT('2D SPACE',''
  ) );
#443 = ORIENTED_EDGE('',*,*,#84,.T.);
#444 = ORIENTED_EDGE('',*,*,#242,.T.);
#445 = ORIENTED_EDGE('',*,*,#446,.F.);
#446 = EDGE_CURVE('',#422,#220,#447,.T.);
#447 = SURFACE_CURVE('',#448,(#452,#459),.PCURVE_S1.);
#448 = LINE('',#449,#450);
#449 = CARTESIAN_POINT('',(-7.105427357601E-15,20.3,20.3));
#450 = VECTOR('',#451,1.);
#451 = DIRECTION('',(1.,-3.697785493223E-32,3.330669073875E-16));
#452 = PCURVE('',#100,#453);
#453 = DEFINITIONAL_REPRESENTATION('',(#454),#458);
#454 = LINE('',#455,#456);
#455 = CARTESIAN_POINT('',(-3.180095524172E-31,40.6));
#456 = VECTOR('',#457,1.);
#457 = DIRECTION('',(1.,0.));
#458 = ( GEOMETRIC_REPRESENTATION_CONTEXT(2) 
PARAMETRIC_REPRESENTATION_CONTEXT() REPRESENTATION_CONTEXT('2D SPACE',''
  ) );
#459 = PCURVE('',#202,#460);
#460 = DEFINITIONAL_REPRESENTATION('',(#461),#465);
#461 = LINE('',#462,#463);
#462 = CARTESIAN_POINT('',(-6.883382752676E-16,-40.6));
#463 = VECTOR('',#464,1.);
#464 = DIRECTION('',(1.,0.));
#465 = ( GEOMETRIC_REPRESENTATION_CONTEXT(2) 
PARAMETRIC_REPRESENTATION_CONTEXT() REPRESENTATION_CONTEXT('2D SPACE',''
  ) );
#466 = FACE_BOUND('',#467,.T.);
#467 = EDGE_LOOP('',(#468));
#468 = ORIENTED_EDGE('',*,*,#469,.T.);
#469 = EDGE_CURVE('',#470,#470,#472,.T.);
#470 = VERTEX_POINT('',#471);
#471 = CARTESIAN_POINT('',(4.5,1.65,20.3));
#472 = SURFACE_CURVE('',#473,(#478,#489),.PCURVE_S1.);
#473 = CIRCLE('',#474,1.65);
#474 = AXIS2_PLACEMENT_3D('',#475,#476,#477);
#475 = CARTESIAN_POINT('',(4.5,-2.253752739989E-15,20.3));
#476 = DIRECTION('',(5.551115123126E-16,1.110223024625E-16,-1.));
#477 = DIRECTION('',(0.,1.,1.110223024625E-16));
#478 = PCURVE('',#100,#479);
#479 = DEFINITIONAL_REPRESENTATION('',(#480),#488);
#480 = ( BOUNDED_CURVE() B_SPLINE_CURVE(2,(#481,#482,#483,#484,#485,#486
,#487),.UNSPECIFIED.,.T.,.F.) B_SPLINE_CURVE_WITH_KNOTS((1,2,2,2,2,1),(
    -2.094395102393,0.,2.094395102393,4.188790204786,6.28318530718,
8.377580409573),.UNSPECIFIED.) CURVE() GEOMETRIC_REPRESENTATION_ITEM() 
RATIONAL_B_SPLINE_CURVE((1.,0.5,1.,0.5,1.,0.5,1.)) REPRESENTATION_ITEM(
  '') );
#481 = CARTESIAN_POINT('',(4.5,21.95));
#482 = CARTESIAN_POINT('',(7.357883832489,21.95));
#483 = CARTESIAN_POINT('',(5.928941916244,19.475));
#484 = CARTESIAN_POINT('',(4.5,17.));
#485 = CARTESIAN_POINT('',(3.071058083756,19.475));
#486 = CARTESIAN_POINT('',(1.642116167511,21.95));
#487 = CARTESIAN_POINT('',(4.5,21.95));
#488 = ( GEOMETRIC_REPRESENTATION_CONTEXT(2) 
PARAMETRIC_REPRESENTATION_CONTEXT() REPRESENTATION_CONTEXT('2D SPACE',''
  ) );
#489 = PCURVE('',#490,#495);
#490 = CYLINDRICAL_SURFACE('',#491,1.65);
#491 = AXIS2_PLACEMENT_3D('',#492,#493,#494);
#492 = CARTESIAN_POINT('',(4.5,-1.7763568394E-15,8.));
#493 = DIRECTION('',(5.551115123126E-16,1.110223024625E-16,-1.));
#494 = DIRECTION('',(0.,1.,1.110223024625E-16));
#495 = DEFINITIONAL_REPRESENTATION('',(#496),#500);
#496 = LINE('',#497,#498);
#497 = CARTESIAN_POINT('',(-6.28318530718,-12.3));
#498 = VECTOR('',#499,1.);
#499 = DIRECTION('',(1.,-0.));
#500 = ( GEOMETRIC_REPRESENTATION_CONTEXT(2) 
PARAMETRIC_REPRESENTATION_CONTEXT() REPRESENTATION_CONTEXT('2D SPACE',''
  ) );
#501 = ADVANCED_FACE('',(#502,#528,#554,#580,#606,#637),#72,.F.);
#502 = FACE_BOUND('',#503,.F.);
#503 = EDGE_LOOP('',(#504,#505,#506,#527));
#504 = ORIENTED_EDGE('',*,*,#56,.F.);
#505 = ORIENTED_EDGE('',*,*,#141,.T.);
#506 = ORIENTED_EDGE('',*,*,#507,.T.);
#507 = EDGE_CURVE('',#142,#422,#508,.T.);
#508 = SURFACE_CURVE('',#509,(#513,#520),.PCURVE_S1.);
#509 = LINE('',#510,#511);
#510 = CARTESIAN_POINT('',(7.105427357601E-15,20.3,-20.3));
#511 = VECTOR('',#512,1.);
#512 = DIRECTION('',(-3.330669073875E-16,-1.110223024625E-16,1.));
#513 = PCURVE('',#72,#514);
#514 = DEFINITIONAL_REPRESENTATION('',(#515),#519);
#515 = LINE('',#516,#517);
#516 = CARTESIAN_POINT('',(40.6,-9.547918011776E-16));
#517 = VECTOR('',#518,1.);
#518 = DIRECTION('',(0.,1.));
#519 = ( GEOMETRIC_REPRESENTATION_CONTEXT(2) 
PARAMETRIC_REPRESENTATION_CONTEXT() REPRESENTATION_CONTEXT('2D SPACE',''
  ) );
#520 = PCURVE('',#202,#521);
#521 = DEFINITIONAL_REPRESENTATION('',(#522),#526);
#522 = LINE('',#523,#524);
#523 = CARTESIAN_POINT('',(0.,0.));
#524 = VECTOR('',#525,1.);
#525 = DIRECTION('',(0.,-1.));
#526 = ( GEOMETRIC_REPRESENTATION_CONTEXT(2) 
PARAMETRIC_REPRESENTATION_CONTEXT() REPRESENTATION_CONTEXT('2D SPACE',''
  ) );
#527 = ORIENTED_EDGE('',*,*,#421,.F.);
#528 = FACE_BOUND('',#529,.F.);
#529 = EDGE_LOOP('',(#530));
#530 = ORIENTED_EDGE('',*,*,#531,.F.);
#531 = EDGE_CURVE('',#532,#532,#534,.T.);
#532 = VERTEX_POINT('',#533);
#533 = CARTESIAN_POINT('',(4.996003610813E-15,-11.95,-15.));
#534 = SURFACE_CURVE('',#535,(#540,#547),.PCURVE_S1.);
#535 = CIRCLE('',#536,3.05);
#536 = AXIS2_PLACEMENT_3D('',#537,#538,#539);
#537 = CARTESIAN_POINT('',(5.329070518201E-15,-15.,-15.));
#538 = DIRECTION('',(1.,-3.697785493223E-32,3.330669073875E-16));
#539 = DIRECTION('',(0.,1.,1.110223024625E-16));
#540 = PCURVE('',#72,#541);
#541 = DEFINITIONAL_REPRESENTATION('',(#542),#546);
#542 = CIRCLE('',#543,3.05);
#543 = AXIS2_PLACEMENT_2D('',#544,#545);
#544 = CARTESIAN_POINT('',(5.3,5.3));
#545 = DIRECTION('',(1.,0.));
#546 = ( GEOMETRIC_REPRESENTATION_CONTEXT(2) 
PARAMETRIC_REPRESENTATION_CONTEXT() REPRESENTATION_CONTEXT('2D SPACE',''
  ) );
#547 = PCURVE('',#282,#548);
#548 = DEFINITIONAL_REPRESENTATION('',(#549),#553);
#549 = LINE('',#550,#551);
#550 = CARTESIAN_POINT('',(-0.,0.));
#551 = VECTOR('',#552,1.);
#552 = DIRECTION('',(-1.,0.));
#553 = ( GEOMETRIC_REPRESENTATION_CONTEXT(2) 
PARAMETRIC_REPRESENTATION_CONTEXT() REPRESENTATION_CONTEXT('2D SPACE',''
  ) );
#554 = FACE_BOUND('',#555,.F.);
#555 = EDGE_LOOP('',(#556));
#556 = ORIENTED_EDGE('',*,*,#557,.F.);
#557 = EDGE_CURVE('',#558,#558,#560,.T.);
#558 = VERTEX_POINT('',#559);
#559 = CARTESIAN_POINT('',(4.996003610813E-15,18.05,-15.));
#560 = SURFACE_CURVE('',#561,(#566,#573),.PCURVE_S1.);
#561 = CIRCLE('',#562,3.05);
#562 = AXIS2_PLACEMENT_3D('',#563,#564,#565);
#563 = CARTESIAN_POINT('',(5.329070518201E-15,15.,-15.));
#564 = DIRECTION('',(1.,-3.697785493223E-32,3.330669073875E-16));
#565 = DIRECTION('',(0.,1.,1.110223024625E-16));
#566 = PCURVE('',#72,#567);
#567 = DEFINITIONAL_REPRESENTATION('',(#568),#572);
#568 = CIRCLE('',#569,3.05);
#569 = AXIS2_PLACEMENT_2D('',#570,#571);
#570 = CARTESIAN_POINT('',(35.3,5.3));
#571 = DIRECTION('',(1.,0.));
#572 = ( GEOMETRIC_REPRESENTATION_CONTEXT(2) 
PARAMETRIC_REPRESENTATION_CONTEXT() REPRESENTATION_CONTEXT('2D SPACE',''
  ) );
#573 = PCURVE('',#313,#574);
#574 = DEFINITIONAL_REPRESENTATION('',(#575),#579);
#575 = LINE('',#576,#577);
#576 = CARTESIAN_POINT('',(-0.,0.));
#577 = VECTOR('',#578,1.);
#578 = DIRECTION('',(-1.,0.));
#579 = ( GEOMETRIC_REPRESENTATION_CONTEXT(2) 
PARAMETRIC_REPRESENTATION_CONTEXT() REPRESENTATION_CONTEXT('2D SPACE',''
  ) );
#580 = FACE_BOUND('',#581,.F.);
#581 = EDGE_LOOP('',(#582));
#582 = ORIENTED_EDGE('',*,*,#583,.F.);
#583 = EDGE_CURVE('',#584,#584,#586,.T.);
#584 = VERTEX_POINT('',#585);
#585 = CARTESIAN_POINT('',(-4.996003610813E-15,-11.95,15.));
#586 = SURFACE_CURVE('',#587,(#592,#599),.PCURVE_S1.);
#587 = CIRCLE('',#588,3.05);
#588 = AXIS2_PLACEMENT_3D('',#589,#590,#591);
#589 = CARTESIAN_POINT('',(-5.329070518201E-15,-15.,15.));
#590 = DIRECTION('',(1.,-3.697785493223E-32,3.330669073875E-16));
#591 = DIRECTION('',(0.,1.,1.110223024625E-16));
#592 = PCURVE('',#72,#593);
#593 = DEFINITIONAL_REPRESENTATION('',(#594),#598);
#594 = CIRCLE('',#595,3.05);
#595 = AXIS2_PLACEMENT_2D('',#596,#597);
#596 = CARTESIAN_POINT('',(5.3,35.3));
#597 = DIRECTION('',(1.,0.));
#598 = ( GEOMETRIC_REPRESENTATION_CONTEXT(2) 
PARAMETRIC_REPRESENTATION_CONTEXT() REPRESENTATION_CONTEXT('2D SPACE',''
  ) );
#599 = PCURVE('',#344,#600);
#600 = DEFINITIONAL_REPRESENTATION('',(#601),#605);
#601 = LINE('',#602,#603);
#602 = CARTESIAN_POINT('',(-0.,0.));
#603 = VECTOR('',#604,1.);
#604 = DIRECTION('',(-1.,0.));
#605 = ( GEOMETRIC_REPRESENTATION_CONTEXT(2) 
PARAMETRIC_REPRESENTATION_CONTEXT() REPRESENTATION_CONTEXT('2D SPACE',''
  ) );
#606 = FACE_BOUND('',#607,.F.);
#607 = EDGE_LOOP('',(#608));
#608 = ORIENTED_EDGE('',*,*,#609,.F.);
#609 = EDGE_CURVE('',#610,#610,#612,.T.);
#610 = VERTEX_POINT('',#611);
#611 = CARTESIAN_POINT('',(6.661338147751E-31,10.1,-8.786747451286E-16)
  );
#612 = SURFACE_CURVE('',#613,(#618,#625),.PCURVE_S1.);
#613 = CIRCLE('',#614,10.1);
#614 = AXIS2_PLACEMENT_3D('',#615,#616,#617);
#615 = CARTESIAN_POINT('',(0.,0.,0.));
#616 = DIRECTION('',(1.,-3.697785493223E-32,3.330669073875E-16));
#617 = DIRECTION('',(0.,1.,1.110223024625E-16));
#618 = PCURVE('',#72,#619);
#619 = DEFINITIONAL_REPRESENTATION('',(#620),#624);
#620 = CIRCLE('',#621,10.1);
#621 = AXIS2_PLACEMENT_2D('',#622,#623);
#622 = CARTESIAN_POINT('',(20.3,20.3));
#623 = DIRECTION('',(1.,0.));
#624 = ( GEOMETRIC_REPRESENTATION_CONTEXT(2) 
PARAMETRIC_REPRESENTATION_CONTEXT() REPRESENTATION_CONTEXT('2D SPACE',''
  ) );
#625 = PCURVE('',#626,#631);
#626 = CYLINDRICAL_SURFACE('',#627,10.1);
#627 = AXIS2_PLACEMENT_3D('',#628,#629,#630);
#628 = CARTESIAN_POINT('',(0.,0.,0.));
#629 = DIRECTION('',(-1.,3.697785493223E-32,-3.330669073875E-16));
#630 = DIRECTION('',(0.,1.,1.110223024625E-16));
#631 = DEFINITIONAL_REPRESENTATION('',(#632),#636);
#632 = LINE('',#633,#634);
#633 = CARTESIAN_POINT('',(-0.,0.));
#634 = VECTOR('',#635,1.);
#635 = DIRECTION('',(-1.,0.));
#636 = ( GEOMETRIC_REPRESENTATION_CONTEXT(2) 
PARAMETRIC_REPRESENTATION_CONTEXT() REPRESENTATION_CONTEXT('2D SPACE',''
  ) );
#637 = FACE_BOUND('',#638,.F.);
#638 = EDGE_LOOP('',(#639));
#639 = ORIENTED_EDGE('',*,*,#640,.F.);
#640 = EDGE_CURVE('',#641,#641,#643,.T.);
#641 = VERTEX_POINT('',#642);
#642 = CARTESIAN_POINT('',(-4.996003610813E-15,18.05,15.));
#643 = SURFACE_CURVE('',#644,(#649,#656),.PCURVE_S1.);
#644 = CIRCLE('',#645,3.05);
#645 = AXIS2_PLACEMENT_3D('',#646,#647,#648);
#646 = CARTESIAN_POINT('',(-5.329070518201E-15,15.,15.));
#647 = DIRECTION('',(1.,-3.697785493223E-32,3.330669073875E-16));
#648 = DIRECTION('',(0.,1.,1.110223024625E-16));
#649 = PCURVE('',#72,#650);
#650 = DEFINITIONAL_REPRESENTATION('',(#651),#655);
#651 = CIRCLE('',#652,3.05);
#652 = AXIS2_PLACEMENT_2D('',#653,#654);
#653 = CARTESIAN_POINT('',(35.3,35.3));
#654 = DIRECTION('',(1.,0.));
#655 = ( GEOMETRIC_REPRESENTATION_CONTEXT(2) 
PARAMETRIC_REPRESENTATION_CONTEXT() REPRESENTATION_CONTEXT('2D SPACE',''
  ) );
#656 = PCURVE('',#406,#657);
#657 = DEFINITIONAL_REPRESENTATION('',(#658),#662);
#658 = LINE('',#659,#660);
#659 = CARTESIAN_POINT('',(-0.,0.));
#660 = VECTOR('',#661,1.);
#661 = DIRECTION('',(-1.,0.));
#662 = ( GEOMETRIC_REPRESENTATION_CONTEXT(2) 
PARAMETRIC_REPRESENTATION_CONTEXT() REPRESENTATION_CONTEXT('2D SPACE',''
  ) );
#663 = ADVANCED_FACE('',(#664),#202,.T.);
#664 = FACE_BOUND('',#665,.T.);
#665 = EDGE_LOOP('',(#666,#667,#668,#669));
#666 = ORIENTED_EDGE('',*,*,#188,.F.);
#667 = ORIENTED_EDGE('',*,*,#507,.T.);
#668 = ORIENTED_EDGE('',*,*,#446,.T.);
#669 = ORIENTED_EDGE('',*,*,#219,.F.);
#670 = ADVANCED_FACE('',(#671),#282,.F.);
#671 = FACE_BOUND('',#672,.T.);
#672 = EDGE_LOOP('',(#673,#694,#695,#696));
#673 = ORIENTED_EDGE('',*,*,#674,.T.);
#674 = EDGE_CURVE('',#532,#266,#675,.T.);
#675 = SEAM_CURVE('',#676,(#680,#687),.PCURVE_S1.);
#676 = LINE('',#677,#678);
#677 = CARTESIAN_POINT('',(5.329070518201E-15,-11.95,-15.));
#678 = VECTOR('',#679,1.);
#679 = DIRECTION('',(1.,-3.697785493223E-32,3.330669073875E-16));
#680 = PCURVE('',#282,#681);
#681 = DEFINITIONAL_REPRESENTATION('',(#682),#686);
#682 = LINE('',#683,#684);
#683 = CARTESIAN_POINT('',(-0.,0.));
#684 = VECTOR('',#685,1.);
#685 = DIRECTION('',(-0.,-1.));
#686 = ( GEOMETRIC_REPRESENTATION_CONTEXT(2) 
PARAMETRIC_REPRESENTATION_CONTEXT() REPRESENTATION_CONTEXT('2D SPACE',''
  ) );
#687 = PCURVE('',#282,#688);
#688 = DEFINITIONAL_REPRESENTATION('',(#689),#693);
#689 = LINE('',#690,#691);
#690 = CARTESIAN_POINT('',(-6.28318530718,0.));
#691 = VECTOR('',#692,1.);
#692 = DIRECTION('',(-0.,-1.));
#693 = ( GEOMETRIC_REPRESENTATION_CONTEXT(2) 
PARAMETRIC_REPRESENTATION_CONTEXT() REPRESENTATION_CONTEXT('2D SPACE',''
  ) );
#694 = ORIENTED_EDGE('',*,*,#265,.T.);
#695 = ORIENTED_EDGE('',*,*,#674,.F.);
#696 = ORIENTED_EDGE('',*,*,#531,.F.);
#697 = ADVANCED_FACE('',(#698),#313,.F.);
#698 = FACE_BOUND('',#699,.T.);
#699 = EDGE_LOOP('',(#700,#721,#722,#723));
#700 = ORIENTED_EDGE('',*,*,#701,.T.);
#701 = EDGE_CURVE('',#558,#297,#702,.T.);
#702 = SEAM_CURVE('',#703,(#707,#714),.PCURVE_S1.);
#703 = LINE('',#704,#705);
#704 = CARTESIAN_POINT('',(5.329070518201E-15,18.05,-15.));
#705 = VECTOR('',#706,1.);
#706 = DIRECTION('',(1.,-3.697785493223E-32,3.330669073875E-16));
#707 = PCURVE('',#313,#708);
#708 = DEFINITIONAL_REPRESENTATION('',(#709),#713);
#709 = LINE('',#710,#711);
#710 = CARTESIAN_POINT('',(-0.,0.));
#711 = VECTOR('',#712,1.);
#712 = DIRECTION('',(-0.,-1.));
#713 = ( GEOMETRIC_REPRESENTATION_CONTEXT(2) 
PARAMETRIC_REPRESENTATION_CONTEXT() REPRESENTATION_CONTEXT('2D SPACE',''
  ) );
#714 = PCURVE('',#313,#715);
#715 = DEFINITIONAL_REPRESENTATION('',(#716),#720);
#716 = LINE('',#717,#718);
#717 = CARTESIAN_POINT('',(-6.28318530718,0.));
#718 = VECTOR('',#719,1.);
#719 = DIRECTION('',(-0.,-1.));
#720 = ( GEOMETRIC_REPRESENTATION_CONTEXT(2) 
PARAMETRIC_REPRESENTATION_CONTEXT() REPRESENTATION_CONTEXT('2D SPACE',''
  ) );
#721 = ORIENTED_EDGE('',*,*,#296,.T.);
#722 = ORIENTED_EDGE('',*,*,#701,.F.);
#723 = ORIENTED_EDGE('',*,*,#557,.F.);
#724 = ADVANCED_FACE('',(#725),#344,.F.);
#725 = FACE_BOUND('',#726,.T.);
#726 = EDGE_LOOP('',(#727,#748,#749,#750));
#727 = ORIENTED_EDGE('',*,*,#728,.T.);
#728 = EDGE_CURVE('',#584,#328,#729,.T.);
#729 = SEAM_CURVE('',#730,(#734,#741),.PCURVE_S1.);
#730 = LINE('',#731,#732);
#731 = CARTESIAN_POINT('',(-5.329070518201E-15,-11.95,15.));
#732 = VECTOR('',#733,1.);
#733 = DIRECTION('',(1.,-3.697785493223E-32,3.330669073875E-16));
#734 = PCURVE('',#344,#735);
#735 = DEFINITIONAL_REPRESENTATION('',(#736),#740);
#736 = LINE('',#737,#738);
#737 = CARTESIAN_POINT('',(-0.,0.));
#738 = VECTOR('',#739,1.);
#739 = DIRECTION('',(-0.,-1.));
#740 = ( GEOMETRIC_REPRESENTATION_CONTEXT(2) 
PARAMETRIC_REPRESENTATION_CONTEXT() REPRESENTATION_CONTEXT('2D SPACE',''
  ) );
#741 = PCURVE('',#344,#742);
#742 = DEFINITIONAL_REPRESENTATION('',(#743),#747);
#743 = LINE('',#744,#745);
#744 = CARTESIAN_POINT('',(-6.28318530718,0.));
#745 = VECTOR('',#746,1.);
#746 = DIRECTION('',(-0.,-1.));
#747 = ( GEOMETRIC_REPRESENTATION_CONTEXT(2) 
PARAMETRIC_REPRESENTATION_CONTEXT() REPRESENTATION_CONTEXT('2D SPACE',''
  ) );
#748 = ORIENTED_EDGE('',*,*,#327,.T.);
#749 = ORIENTED_EDGE('',*,*,#728,.F.);
#750 = ORIENTED_EDGE('',*,*,#583,.F.);
#751 = ADVANCED_FACE('',(#752),#375,.F.);
#752 = FACE_BOUND('',#753,.T.);
#753 = EDGE_LOOP('',(#754,#777,#808,#809));
#754 = ORIENTED_EDGE('',*,*,#755,.F.);
#755 = EDGE_CURVE('',#756,#359,#758,.T.);
#756 = VERTEX_POINT('',#757);
#757 = CARTESIAN_POINT('',(9.,9.1,1.777905118897E-15));
#758 = SEAM_CURVE('',#759,(#763,#770),.PCURVE_S1.);
#759 = LINE('',#760,#761);
#760 = CARTESIAN_POINT('',(7.427392034742E-31,9.1,-1.219697047591E-15));
#761 = VECTOR('',#762,1.);
#762 = DIRECTION('',(1.,-3.697785493223E-32,3.330669073875E-16));
#763 = PCURVE('',#375,#764);
#764 = DEFINITIONAL_REPRESENTATION('',(#765),#769);
#765 = LINE('',#766,#767);
#766 = CARTESIAN_POINT('',(-6.28318530718,0.));
#767 = VECTOR('',#768,1.);
#768 = DIRECTION('',(-0.,-1.));
#769 = ( GEOMETRIC_REPRESENTATION_CONTEXT(2) 
PARAMETRIC_REPRESENTATION_CONTEXT() REPRESENTATION_CONTEXT('2D SPACE',''
  ) );
#770 = PCURVE('',#375,#771);
#771 = DEFINITIONAL_REPRESENTATION('',(#772),#776);
#772 = LINE('',#773,#774);
#773 = CARTESIAN_POINT('',(-0.,0.));
#774 = VECTOR('',#775,1.);
#775 = DIRECTION('',(-0.,-1.));
#776 = ( GEOMETRIC_REPRESENTATION_CONTEXT(2) 
PARAMETRIC_REPRESENTATION_CONTEXT() REPRESENTATION_CONTEXT('2D SPACE',''
  ) );
#777 = ORIENTED_EDGE('',*,*,#778,.T.);
#778 = EDGE_CURVE('',#756,#756,#779,.T.);
#779 = SURFACE_CURVE('',#780,(#785,#792),.PCURVE_S1.);
#780 = CIRCLE('',#781,9.1);
#781 = AXIS2_PLACEMENT_3D('',#782,#783,#784);
#782 = CARTESIAN_POINT('',(9.,-3.328006943901E-31,2.997602166488E-15));
#783 = DIRECTION('',(-1.,3.697785493223E-32,-3.330669073875E-16));
#784 = DIRECTION('',(0.,1.,1.110223024625E-16));
#785 = PCURVE('',#375,#786);
#786 = DEFINITIONAL_REPRESENTATION('',(#787),#791);
#787 = LINE('',#788,#789);
#788 = CARTESIAN_POINT('',(-6.28318530718,-9.));
#789 = VECTOR('',#790,1.);
#790 = DIRECTION('',(1.,-0.));
#791 = ( GEOMETRIC_REPRESENTATION_CONTEXT(2) 
PARAMETRIC_REPRESENTATION_CONTEXT() REPRESENTATION_CONTEXT('2D SPACE',''
  ) );
#792 = PCURVE('',#793,#798);
#793 = PLANE('',#794);
#794 = AXIS2_PLACEMENT_3D('',#795,#796,#797);
#795 = CARTESIAN_POINT('',(9.,-3.328006943901E-31,3.552713678801E-15));
#796 = DIRECTION('',(1.,-3.697785493223E-32,3.330669073875E-16));
#797 = DIRECTION('',(0.,1.,1.110223024625E-16));
#798 = DEFINITIONAL_REPRESENTATION('',(#799),#807);
#799 = ( BOUNDED_CURVE() B_SPLINE_CURVE(2,(#800,#801,#802,#803,#804,#805
,#806),.UNSPECIFIED.,.T.,.F.) B_SPLINE_CURVE_WITH_KNOTS((1,2,2,2,2,1),(
    -2.094395102393,0.,2.094395102393,4.188790204786,6.28318530718,
8.377580409573),.UNSPECIFIED.) CURVE() GEOMETRIC_REPRESENTATION_ITEM() 
RATIONAL_B_SPLINE_CURVE((1.,0.5,1.,0.5,1.,0.5,1.)) REPRESENTATION_ITEM(
  '') );
#800 = CARTESIAN_POINT('',(9.1,0.));
#801 = CARTESIAN_POINT('',(9.1,-15.76166234887));
#802 = CARTESIAN_POINT('',(-4.55,-7.880831174438));
#803 = CARTESIAN_POINT('',(-18.2,-2.228857174448E-15));
#804 = CARTESIAN_POINT('',(-4.55,7.880831174438));
#805 = CARTESIAN_POINT('',(9.1,15.761662348877));
#806 = CARTESIAN_POINT('',(9.1,0.));
#807 = ( GEOMETRIC_REPRESENTATION_CONTEXT(2) 
PARAMETRIC_REPRESENTATION_CONTEXT() REPRESENTATION_CONTEXT('2D SPACE',''
  ) );
#808 = ORIENTED_EDGE('',*,*,#755,.T.);
#809 = ORIENTED_EDGE('',*,*,#358,.T.);
#810 = ADVANCED_FACE('',(#811),#406,.F.);
#811 = FACE_BOUND('',#812,.T.);
#812 = EDGE_LOOP('',(#813,#834,#835,#836));
#813 = ORIENTED_EDGE('',*,*,#814,.T.);
#814 = EDGE_CURVE('',#641,#390,#815,.T.);
#815 = SEAM_CURVE('',#816,(#820,#827),.PCURVE_S1.);
#816 = LINE('',#817,#818);
#817 = CARTESIAN_POINT('',(-5.329070518201E-15,18.05,15.));
#818 = VECTOR('',#819,1.);
#819 = DIRECTION('',(1.,-3.697785493223E-32,3.330669073875E-16));
#820 = PCURVE('',#406,#821);
#821 = DEFINITIONAL_REPRESENTATION('',(#822),#826);
#822 = LINE('',#823,#824);
#823 = CARTESIAN_POINT('',(-0.,0.));
#824 = VECTOR('',#825,1.);
#825 = DIRECTION('',(-0.,-1.));
#826 = ( GEOMETRIC_REPRESENTATION_CONTEXT(2) 
PARAMETRIC_REPRESENTATION_CONTEXT() REPRESENTATION_CONTEXT('2D SPACE',''
  ) );
#827 = PCURVE('',#406,#828);
#828 = DEFINITIONAL_REPRESENTATION('',(#829),#833);
#829 = LINE('',#830,#831);
#830 = CARTESIAN_POINT('',(-6.28318530718,0.));
#831 = VECTOR('',#832,1.);
#832 = DIRECTION('',(-0.,-1.));
#833 = ( GEOMETRIC_REPRESENTATION_CONTEXT(2) 
PARAMETRIC_REPRESENTATION_CONTEXT() REPRESENTATION_CONTEXT('2D SPACE',''
  ) );
#834 = ORIENTED_EDGE('',*,*,#389,.T.);
#835 = ORIENTED_EDGE('',*,*,#814,.F.);
#836 = ORIENTED_EDGE('',*,*,#640,.F.);
#837 = ADVANCED_FACE('',(#838),#490,.F.);
#838 = FACE_BOUND('',#839,.T.);
#839 = EDGE_LOOP('',(#840,#863,#1028,#1029));
#840 = ORIENTED_EDGE('',*,*,#841,.F.);
#841 = EDGE_CURVE('',#842,#470,#844,.T.);
#842 = VERTEX_POINT('',#843);
#843 = CARTESIAN_POINT('',(4.5,1.65,9.964311315891));
#844 = SEAM_CURVE('',#845,(#849,#856),.PCURVE_S1.);
#845 = LINE('',#846,#847);
#846 = CARTESIAN_POINT('',(4.5,1.65,8.));
#847 = VECTOR('',#848,1.);
#848 = DIRECTION('',(-5.551115123126E-16,-1.110223024625E-16,1.));
#849 = PCURVE('',#490,#850);
#850 = DEFINITIONAL_REPRESENTATION('',(#851),#855);
#851 = LINE('',#852,#853);
#852 = CARTESIAN_POINT('',(-6.28318530718,0.));
#853 = VECTOR('',#854,1.);
#854 = DIRECTION('',(-0.,-1.));
#855 = ( GEOMETRIC_REPRESENTATION_CONTEXT(2) 
PARAMETRIC_REPRESENTATION_CONTEXT() REPRESENTATION_CONTEXT('2D SPACE',''
  ) );
#856 = PCURVE('',#490,#857);
#857 = DEFINITIONAL_REPRESENTATION('',(#858),#862);
#858 = LINE('',#859,#860);
#859 = CARTESIAN_POINT('',(-0.,0.));
#860 = VECTOR('',#861,1.);
#861 = DIRECTION('',(-0.,-1.));
#862 = ( GEOMETRIC_REPRESENTATION_CONTEXT(2) 
PARAMETRIC_REPRESENTATION_CONTEXT() REPRESENTATION_CONTEXT('2D SPACE',''
  ) );
#863 = ORIENTED_EDGE('',*,*,#864,.F.);
#864 = EDGE_CURVE('',#842,#842,#865,.T.);
#865 = SURFACE_CURVE('',#866,(#918,#973),.PCURVE_S1.);
#866 = B_SPLINE_CURVE_WITH_KNOTS('',8,(#867,#868,#869,#870,#871,#872,
    #873,#874,#875,#876,#877,#878,#879,#880,#881,#882,#883,#884,#885,
    #886,#887,#888,#889,#890,#891,#892,#893,#894,#895,#896,#897,#898,
    #899,#900,#901,#902,#903,#904,#905,#906,#907,#908,#909,#910,#911,
    #912,#913,#914,#915,#916,#917),.UNSPECIFIED.,.T.,.F.,(9,7,7,7,7,7,7,
    9),(0.,0.153020834089,0.286749229402,0.412540855833,0.568076027385,
    0.70672233419,0.829279812927,1.),.UNSPECIFIED.);
#867 = CARTESIAN_POINT('',(4.5,1.65,9.964311315891));
#868 = CARTESIAN_POINT('',(4.327024387764,1.65,9.964311315891));
#869 = CARTESIAN_POINT('',(4.154099451411,1.629276579326,9.96774278369)
  );
#870 = CARTESIAN_POINT('',(3.982841362478,1.587846375415,9.974603825923)
  );
#871 = CARTESIAN_POINT('',(3.815002773238,1.525369101096,9.984700602048)
  );
#872 = CARTESIAN_POINT('',(3.652649355314,1.441251517514,9.9976392838));
#873 = CARTESIAN_POINT('',(3.498356759515,1.334740514054,10.012755448524
    ));
#874 = CARTESIAN_POINT('',(3.355493235445,1.205072908798,10.029036097155
    ));
#875 = CARTESIAN_POINT('',(3.11780470668,0.917756833447,10.059118911533)
  );
#876 = CARTESIAN_POINT('',(3.015692049775,0.761463501566,10.073418205832
    ));
#877 = CARTESIAN_POINT('',(2.930619137163,0.585219347555,10.086549836489
    ));
#878 = CARTESIAN_POINT('',(2.868751045008,0.393286107977,10.096813069736
    ));
#879 = CARTESIAN_POINT('',(2.83413543131,0.191356061809,10.102695443739)
  );
#880 = CARTESIAN_POINT('',(2.828689452404,-1.416920041645E-02,
    10.103518008));
#881 = CARTESIAN_POINT('',(2.852129260128,-0.216736395104,
    10.099533108391));
#882 = CARTESIAN_POINT('',(2.948596111478,-0.592449975138,
    10.084256170694));
#883 = CARTESIAN_POINT('',(3.01734211571,-0.761741357777,10.073610471972
    ));
#884 = CARTESIAN_POINT('',(3.104336268872,-0.916374623897,10.06071512503
    ));
#885 = CARTESIAN_POINT('',(3.206239391011,-1.055221874104,
    10.046650220161));
#886 = CARTESIAN_POINT('',(3.319997223721,-1.17765579203,10.032415374101
    ));
#887 = CARTESIAN_POINT('',(3.442780446744,-1.283444271906,
    10.018841419147));
#888 = CARTESIAN_POINT('',(3.571961108039,-1.372708757656,
    10.006554882173));
#889 = CARTESIAN_POINT('',(3.869734102408,-1.536410846608,9.982875548616
    ));
#890 = CARTESIAN_POINT('',(4.042170564485,-1.603313574533,9.972242090974
    ));
#891 = CARTESIAN_POINT('',(4.219514786786,-1.647364825621,9.96482536524)
  );
#892 = CARTESIAN_POINT('',(4.399489727848,-1.669106858476,9.961062889599
    ));
#893 = CARTESIAN_POINT('',(4.580162074825,-1.668833450649,9.961132282493
    ));
#894 = CARTESIAN_POINT('',(4.759720613528,-1.646545603194,9.964993648082
    ));
#895 = CARTESIAN_POINT('',(4.936246101733,-1.601898006182,9.972393071555
    ));
#896 = CARTESIAN_POINT('',(5.259979491577,-1.473722889759,9.992090681617
    ));
#897 = CARTESIAN_POINT('',(5.409114234914,-1.394616523878,
    10.003819697614));
#898 = CARTESIAN_POINT('',(5.552445606019,-1.296169303971,
    10.017632705367));
#899 = CARTESIAN_POINT('',(5.687231485539,-1.177917377985,
    10.032913731881));
#900 = CARTESIAN_POINT('',(5.81030457716,-1.039661798385,10.048774083464
    ));
#901 = CARTESIAN_POINT('',(5.918003137623,-0.88157502824,10.064034771797
    ));
#902 = CARTESIAN_POINT('',(6.006036623992,-0.70440803883,10.077288718832
    ));
#903 = CARTESIAN_POINT('',(6.125115241071,-0.337921739417,
    10.095813658025));
#904 = CARTESIAN_POINT('',(6.160796124346,-0.154833136902,
    10.101708603226));
#905 = CARTESIAN_POINT('',(6.172698799025,3.451297326261E-02,
    10.103817081688));
#906 = CARTESIAN_POINT('',(6.159337005305,0.224519161233,10.101553144747
    ));
#907 = CARTESIAN_POINT('',(6.121229425794,0.409400714983,10.095094408035
    ));
#908 = CARTESIAN_POINT('',(6.060858611314,0.583742359428,10.085344914344
    ));
#909 = CARTESIAN_POINT('',(5.982675597546,0.743030382695,10.073627161828
    ));
#910 = CARTESIAN_POINT('',(5.768421229368,1.08064124484,10.043960155741)
  );
#911 = CARTESIAN_POINT('',(5.618288305671,1.247180019217,10.024904650548
    ));
#912 = CARTESIAN_POINT('',(5.450552880287,1.383741361754,10.006393983522
    ));
#913 = CARTESIAN_POINT('',(5.270692928995,1.491294612765,9.990191624417)
  );
#914 = CARTESIAN_POINT('',(5.082833524936,1.570937514975,9.977402787824)
  );
#915 = CARTESIAN_POINT('',(4.890132818068,1.623636031227,9.968677066086)
  );
#916 = CARTESIAN_POINT('',(4.695097100958,1.65,9.964311315891));
#917 = CARTESIAN_POINT('',(4.5,1.65,9.964311315891));
#918 = PCURVE('',#490,#919);
#919 = DEFINITIONAL_REPRESENTATION('',(#920),#972);
#920 = B_SPLINE_CURVE_WITH_KNOTS('',8,(#921,#922,#923,#924,#925,#926,
    #927,#928,#929,#930,#931,#932,#933,#934,#935,#936,#937,#938,#939,
    #940,#941,#942,#943,#944,#945,#946,#947,#948,#949,#950,#951,#952,
    #953,#954,#955,#956,#957,#958,#959,#960,#961,#962,#963,#964,#965,
    #966,#967,#968,#969,#970,#971),.UNSPECIFIED.,.F.,.F.,(9,7,7,7,7,7,7,
    9),(0.,0.153020834089,0.286749229402,0.412540855833,0.568076027385,
    0.70672233419,0.829279812927,1.),.UNSPECIFIED.);
#921 = CARTESIAN_POINT('',(0.,-1.964311315891));
#922 = CARTESIAN_POINT('',(-0.104833704385,-1.964311315891));
#923 = CARTESIAN_POINT('',(-0.209636163019,-1.96774278369));
#924 = CARTESIAN_POINT('',(-0.315186447285,-1.974603825923));
#925 = CARTESIAN_POINT('',(-0.422167373233,-1.984700602048));
#926 = CARTESIAN_POINT('',(-0.531289199036,-1.9976392838));
#927 = CARTESIAN_POINT('',(-0.643303774613,-2.012755448524));
#928 = CARTESIAN_POINT('',(-0.759046811743,-2.029036097155));
#929 = CARTESIAN_POINT('',(-0.985040273103,-2.059118911533));
#930 = CARTESIAN_POINT('',(-1.097473870119,-2.073418205832));
#931 = CARTESIAN_POINT('',(-1.214423857803,-2.086549836489));
#932 = CARTESIAN_POINT('',(-1.334310448022,-2.096813069736));
#933 = CARTESIAN_POINT('',(-1.456004924403,-2.102695443739));
#934 = CARTESIAN_POINT('',(-1.578539288519,-2.103518008));
#935 = CARTESIAN_POINT('',(-1.700983396258,-2.099533108391));
#936 = CARTESIAN_POINT('',(-1.936074412868,-2.084256170694));
#937 = CARTESIAN_POINT('',(-2.045813657129,-2.073610471972));
#938 = CARTESIAN_POINT('',(-2.151951482151,-2.06071512503));
#939 = CARTESIAN_POINT('',(-2.254884142351,-2.046650220161));
#940 = CARTESIAN_POINT('',(-2.354896001903,-2.032415374101));
#941 = CARTESIAN_POINT('',(-2.452183865542,-2.018841419147));
#942 = CARTESIAN_POINT('',(-2.546853469686,-2.006554882173));
#943 = CARTESIAN_POINT('',(-2.75279561933,-1.982875548616));
#944 = CARTESIAN_POINT('',(-2.863909411496,-1.972242090974));
#945 = CARTESIAN_POINT('',(-2.973206800597,-1.96482536524));
#946 = CARTESIAN_POINT('',(-3.081432640246,-1.961062889599));
#947 = CARTESIAN_POINT('',(-3.189312739348,-1.961132282493));
#948 = CARTESIAN_POINT('',(-3.297582794357,-1.964993648082));
#949 = CARTESIAN_POINT('',(-3.407016123826,-1.972393071555));
#950 = CARTESIAN_POINT('',(-3.618036791082,-1.992090681617));
#951 = CARTESIAN_POINT('',(-3.719722806552,-2.003819697614));
#952 = CARTESIAN_POINT('',(-3.823955637093,-2.017632705367));
#953 = CARTESIAN_POINT('',(-3.931066511117,-2.032913731881));
#954 = CARTESIAN_POINT('',(-4.041468316552,-2.048774083464));
#955 = CARTESIAN_POINT('',(-4.155658997643,-2.064034771797));
#956 = CARTESIAN_POINT('',(-4.274265506241,-2.077288718832));
#957 = CARTESIAN_POINT('',(-4.507808839291,-2.095813658025));
#958 = CARTESIAN_POINT('',(-4.620022791523,-2.101708603226));
#959 = CARTESIAN_POINT('',(-4.73339689341,-2.103817081688));
#960 = CARTESIAN_POINT('',(-4.846832366439,-2.101553144747));
#961 = CARTESIAN_POINT('',(-4.959307533433,-2.095094408035));
#962 = CARTESIAN_POINT('',(-5.069705436208,-2.085344914344));
#963 = CARTESIAN_POINT('',(-5.176605347836,-2.073627161828));
#964 = CARTESIAN_POINT('',(-5.41894323285,-2.043960155741));
#965 = CARTESIAN_POINT('',(-5.552918499532,-2.024904650548));
#966 = CARTESIAN_POINT('',(-5.681545121323,-2.006393983522));
#967 = CARTESIAN_POINT('',(-5.806025326938,-1.990191624417));
#968 = CARTESIAN_POINT('',(-5.927435479772,-1.977402787824));
#969 = CARTESIAN_POINT('',(-6.046740823385,-1.968677066086));
#970 = CARTESIAN_POINT('',(-6.164944639932,-1.964311315891));
#971 = CARTESIAN_POINT('',(-6.28318530718,-1.964311315891));
#972 = ( GEOMETRIC_REPRESENTATION_CONTEXT(2) 
PARAMETRIC_REPRESENTATION_CONTEXT() REPRESENTATION_CONTEXT('2D SPACE',''
  ) );
#973 = PCURVE('',#626,#974);
#974 = DEFINITIONAL_REPRESENTATION('',(#975),#1027);
#975 = B_SPLINE_CURVE_WITH_KNOTS('',8,(#976,#977,#978,#979,#980,#981,
    #982,#983,#984,#985,#986,#987,#988,#989,#990,#991,#992,#993,#994,
    #995,#996,#997,#998,#999,#1000,#1001,#1002,#1003,#1004,#1005,#1006,
    #1007,#1008,#1009,#1010,#1011,#1012,#1013,#1014,#1015,#1016,#1017,
    #1018,#1019,#1020,#1021,#1022,#1023,#1024,#1025,#1026),
  .UNSPECIFIED.,.T.,.F.,(9,7,7,7,7,7,7,9),(0.,0.153020834089,
    0.286749229402,0.412540855833,0.568076027385,0.70672233419,
    0.829279812927,1.),.UNSPECIFIED.);
#976 = CARTESIAN_POINT('',(-1.406694453057,-4.5));
#977 = CARTESIAN_POINT('',(-1.406694453057,-4.327024387764));
#978 = CARTESIAN_POINT('',(-1.408774216478,-4.154099451411));
#979 = CARTESIAN_POINT('',(-1.412932081191,-3.982841362478));
#980 = CARTESIAN_POINT('',(-1.419198160942,-3.815002773238));
#981 = CARTESIAN_POINT('',(-1.427624043198,-3.652649355314));
#982 = CARTESIAN_POINT('',(-1.43827363517,-3.498356759515));
#983 = CARTESIAN_POINT('',(-1.451210069292,-3.355493235445));
#984 = CARTESIAN_POINT('',(-1.479812708991,-3.11780470668));
#985 = CARTESIAN_POINT('',(-1.495350589418,-3.015692049775));
#986 = CARTESIAN_POINT('',(-1.512844676011,-2.930619137163));
#987 = CARTESIAN_POINT('',(-1.531866238373,-2.868751045008));
#988 = CARTESIAN_POINT('',(-1.551855367913,-2.834135431311));
#989 = CARTESIAN_POINT('',(-1.572195101017,-2.828689452404));
#990 = CARTESIAN_POINT('',(-1.592250721391,-2.852129260128));
#991 = CARTESIAN_POINT('',(-1.629480824412,-2.948596111478));
#992 = CARTESIAN_POINT('',(-1.646271325723,-3.01734211571));
#993 = CARTESIAN_POINT('',(-1.661629759307,-3.104336268873));
#994 = CARTESIAN_POINT('',(-1.675443825702,-3.206239391011));
#995 = CARTESIAN_POINT('',(-1.687645836398,-3.319997223721));
#996 = CARTESIAN_POINT('',(-1.698205029629,-3.442780446744));
#997 = CARTESIAN_POINT('',(-1.707126220214,-3.571961108039));
#998 = CARTESIAN_POINT('',(-1.723503033918,-3.869734102408));
#999 = CARTESIAN_POINT('',(-1.730209561599,-4.042170564485));
#1000 = CARTESIAN_POINT('',(-1.734632385379,-4.219514786786));
#1001 = CARTESIAN_POINT('',(-1.73681718063,-4.399489727848));
#1002 = CARTESIAN_POINT('',(-1.736789270598,-4.580162074825));
#1003 = CARTESIAN_POINT('',(-1.734549631587,-4.759720613528));
#1004 = CARTESIAN_POINT('',(-1.730069085094,-4.936246101733));
#1005 = CARTESIAN_POINT('',(-1.717229498727,-5.259979491577));
#1006 = CARTESIAN_POINT('',(-1.709311658878,-5.409114234914));
#1007 = CARTESIAN_POINT('',(-1.699469491796,-5.55244560602));
#1008 = CARTESIAN_POINT('',(-1.687665442154,-5.687231485539));
#1009 = CARTESIAN_POINT('',(-1.673890370815,-5.81030457716));
#1010 = CARTESIAN_POINT('',(-1.65817090819,-5.918003137623));
#1011 = CARTESIAN_POINT('',(-1.640585754373,-6.006036623992));
#1012 = CARTESIAN_POINT('',(-1.604253655885,-6.125115241071));
#1013 = CARTESIAN_POINT('',(-1.586119695608,-6.160796124346));
#1014 = CARTESIAN_POINT('',(-1.567378465029,-6.172698799025));
#1015 = CARTESIAN_POINT('',(-1.548574471862,-6.159337005305));
#1016 = CARTESIAN_POINT('',(-1.530266797033,-6.121229425793));
#1017 = CARTESIAN_POINT('',(-1.512982694465,-6.060858611314));
#1018 = CARTESIAN_POINT('',(-1.497170610722,-5.982675597546));
#1019 = CARTESIAN_POINT('',(-1.463614984431,-5.768421229368));
#1020 = CARTESIAN_POINT('',(-1.447024143783,-5.618288305671));
#1021 = CARTESIAN_POINT('',(-1.433383305868,-5.450552880288));
#1022 = CARTESIAN_POINT('',(-1.422615316114,-5.270692928994));
#1023 = CARTESIAN_POINT('',(-1.414629030125,-5.082833524937));
#1024 = CARTESIAN_POINT('',(-1.409340290191,-4.890132818068));
#1025 = CARTESIAN_POINT('',(-1.406694453057,-4.695097100958));
#1026 = CARTESIAN_POINT('',(-1.406694453057,-4.5));
#1027 = ( GEOMETRIC_REPRESENTATION_CONTEXT(2) 
PARAMETRIC_REPRESENTATION_CONTEXT() REPRESENTATION_CONTEXT('2D SPACE',''
  ) );
#1028 = ORIENTED_EDGE('',*,*,#841,.T.);
#1029 = ORIENTED_EDGE('',*,*,#469,.F.);
#1030 = ADVANCED_FACE('',(#1031,#1080),#626,.F.);
#1031 = FACE_BOUND('',#1032,.T.);
#1032 = EDGE_LOOP('',(#1033,#1056,#1057,#1058));
#1033 = ORIENTED_EDGE('',*,*,#1034,.F.);
#1034 = EDGE_CURVE('',#610,#1035,#1037,.T.);
#1035 = VERTEX_POINT('',#1036);
#1036 = CARTESIAN_POINT('',(9.,10.1,2.118927421359E-15));
#1037 = SEAM_CURVE('',#1038,(#1042,#1049),.PCURVE_S1.);
#1038 = LINE('',#1039,#1040);
#1039 = CARTESIAN_POINT('',(8.226752612472E-31,10.1,-1.348674745129E-15)
  );
#1040 = VECTOR('',#1041,1.);
#1041 = DIRECTION('',(1.,-3.697785493223E-32,3.330669073875E-16));
#1042 = PCURVE('',#626,#1043);
#1043 = DEFINITIONAL_REPRESENTATION('',(#1044),#1048);
#1044 = LINE('',#1045,#1046);
#1045 = CARTESIAN_POINT('',(-6.28318530718,0.));
#1046 = VECTOR('',#1047,1.);
#1047 = DIRECTION('',(-0.,-1.));
#1048 = ( GEOMETRIC_REPRESENTATION_CONTEXT(2) 
PARAMETRIC_REPRESENTATION_CONTEXT() REPRESENTATION_CONTEXT('2D SPACE',''
  ) );
#1049 = PCURVE('',#626,#1050);
#1050 = DEFINITIONAL_REPRESENTATION('',(#1051),#1055);
#1051 = LINE('',#1052,#1053);
#1052 = CARTESIAN_POINT('',(-0.,0.));
#1053 = VECTOR('',#1054,1.);
#1054 = DIRECTION('',(-0.,-1.));
#1055 = ( GEOMETRIC_REPRESENTATION_CONTEXT(2) 
PARAMETRIC_REPRESENTATION_CONTEXT() REPRESENTATION_CONTEXT('2D SPACE',''
  ) );
#1056 = ORIENTED_EDGE('',*,*,#609,.F.);
#1057 = ORIENTED_EDGE('',*,*,#1034,.T.);
#1058 = ORIENTED_EDGE('',*,*,#1059,.T.);
#1059 = EDGE_CURVE('',#1035,#1035,#1060,.T.);
#1060 = SURFACE_CURVE('',#1061,(#1066,#1073),.PCURVE_S1.);
#1061 = CIRCLE('',#1062,10.1);
#1062 = AXIS2_PLACEMENT_3D('',#1063,#1064,#1065);
#1063 = CARTESIAN_POINT('',(9.,-3.328006943901E-31,3.552713678801E-15));
#1064 = DIRECTION('',(1.,-3.697785493223E-32,3.330669073875E-16));
#1065 = DIRECTION('',(0.,1.,1.110223024625E-16));
#1066 = PCURVE('',#626,#1067);
#1067 = DEFINITIONAL_REPRESENTATION('',(#1068),#1072);
#1068 = LINE('',#1069,#1070);
#1069 = CARTESIAN_POINT('',(-0.,-9.));
#1070 = VECTOR('',#1071,1.);
#1071 = DIRECTION('',(-1.,0.));
#1072 = ( GEOMETRIC_REPRESENTATION_CONTEXT(2) 
PARAMETRIC_REPRESENTATION_CONTEXT() REPRESENTATION_CONTEXT('2D SPACE',''
  ) );
#1073 = PCURVE('',#793,#1074);
#1074 = DEFINITIONAL_REPRESENTATION('',(#1075),#1079);
#1075 = CIRCLE('',#1076,10.1);
#1076 = AXIS2_PLACEMENT_2D('',#1077,#1078);
#1077 = CARTESIAN_POINT('',(0.,0.));
#1078 = DIRECTION('',(1.,0.));
#1079 = ( GEOMETRIC_REPRESENTATION_CONTEXT(2) 
PARAMETRIC_REPRESENTATION_CONTEXT() REPRESENTATION_CONTEXT('2D SPACE',''
  ) );
#1080 = FACE_BOUND('',#1081,.T.);
#1081 = EDGE_LOOP('',(#1082));
#1082 = ORIENTED_EDGE('',*,*,#864,.T.);
#1083 = ADVANCED_FACE('',(#1084,#1087),#793,.F.);
#1084 = FACE_BOUND('',#1085,.F.);
#1085 = EDGE_LOOP('',(#1086));
#1086 = ORIENTED_EDGE('',*,*,#1059,.T.);
#1087 = FACE_BOUND('',#1088,.F.);
#1088 = EDGE_LOOP('',(#1089));
#1089 = ORIENTED_EDGE('',*,*,#778,.T.);
#1090 = ( GEOMETRIC_REPRESENTATION_CONTEXT(3) 
GLOBAL_UNCERTAINTY_ASSIGNED_CONTEXT((#1094)) 
GLOBAL_UNIT_ASSIGNED_CONTEXT((#1091,#1092,#1093)) REPRESENTATION_CONTEXT
('Context #1','3D Context with UNIT and UNCERTAINTY') );
#1091 = ( LENGTH_UNIT() NAMED_UNIT(*) SI_UNIT(.MILLI.,.METRE.) );
#1092 = ( NAMED_UNIT(*) PLANE_ANGLE_UNIT() SI_UNIT($,.RADIAN.) );
#1093 = ( NAMED_UNIT(*) SI_UNIT($,.STERADIAN.) SOLID_ANGLE_UNIT() );
#1094 = UNCERTAINTY_MEASURE_WITH_UNIT(LENGTH_MEASURE(1.E-07),#1091,
  'distance_accuracy_value','confusion accuracy');
#1095 = PRODUCT_RELATED_PRODUCT_CATEGORY('part',$,(#7));
#1096 = MECHANICAL_DESIGN_GEOMETRIC_PRESENTATION_REPRESENTATION('',(
    #1097),#1090);
#1097 = STYLED_ITEM('color',(#1098),#15);
#1098 = PRESENTATION_STYLE_ASSIGNMENT((#1099,#1107));
#1099 = SURFACE_STYLE_USAGE(.BOTH.,#1100);
#1100 = SURFACE_SIDE_STYLE('',(#1101,#1105));
#1101 = SURFACE_STYLE_FILL_AREA(#1102);
#1102 = FILL_AREA_STYLE('',(#1103));
#1103 = FILL_AREA_STYLE_COLOUR('',#1104);
#1104 = COLOUR_RGB('',0.250980406631,0.250980406631,0.250980406631);
#1105 = SURFACE_STYLE_RENDERING_WITH_PROPERTIES(.NORMAL_SHADING.,#1104,(
    #1106));
#1106 = SURFACE_STYLE_TRANSPARENT(0.5);
#1107 = CURVE_STYLE('',#1108,POSITIVE_LENGTH_MEASURE(0.1),#1109);
#1108 = DRAUGHTING_PRE_DEFINED_CURVE_FONT('continuous');
#1109 = COLOUR_RGB('',9.803921802644E-02,9.803921802644E-02,
  9.803921802644E-02);
ENDSEC;
END-ISO-10303-21;
